# xmcd CD database file
#
# Track frame offsets:
#	150
#	23422
#	34927
#	74022
#	94966
#	99494
#	102795
#	133281
#	171140
#	232438
#	277542
#	303633
#	332040
#
# Disc length: 4607 seconds
#
# Revision: 0
# Processed by: cddbd v1.5.1PL2 Copyright (c) Steve Scherf et al.
# Submitted via: CDex 1.70beta1
#
DISCID=b711fd0d
DTITLE=Önder Focan Topluluğu - Purple in Blue, İş Kültür, Levent Istanbul, Turkey 2005-01-13
DYEAR=2005
DGENRE=Jazz
TTITLE0=Black Night
TTITLE1=Introduction
TTITLE2=Soldier Of Fortune
TTITLE3=Pictures Of Home
TTITLE4=Drums solo
TTITLE5=Pictures Of Home
TTITLE6=Highway Star
TTITLE7=When A Blind Man Cries
TTITLE8=Maybe I'm A Leo
TTITLE9=Fire In The Basement, incl brass solos
TTITLE10=Mistreated (vocals)
TTITLE11=Fascinating Rythym (Gershwin)
TTITLE12=Burn (vocals) (incomplete)
EXTD=YEAR: 2005
EXTT0=
EXTT1=
EXTT2=
EXTT3=
EXTT4=
EXTT5=
EXTT6=
EXTT7=
EXTT8=
EXTT9=
EXTT10=
EXTT11=
EXTT12=
PLAYORDER=
